# xmcd
#
# Track frame offsets:
#	150
#	18754
#	40316
#	59286
#	72577
#	96085
#	116139
#	135105
#	149310
#	170109
#	187634
#	200925
#
# Disc length: 2929 seconds
# Revision: 0
# Processed by: cddbd v1.5.2PL0 Copyright (c) Steve Scherf et al.
# Submitted via: dBpowerAMP V12.0
#
DISCID=ab0b6f0c
DTITLE=D.A. Foster - The Real Thing
DYEAR=2015
DGENRE=Blues Soul
TTITLE0=Good Man Bad Thing
TTITLE1=The Real Thing
TTITLE2=We All Fall Down
TTITLE3=Ain't Doing Too Bad
TTITLE4=This Time I'm Gone For Good
TTITLE5=Super Lover
TTITLE6=I Need a Good Woman Bad
TTITLE7=Smack Dab In the Middle
TTITLE8=You Just Can't Smile It Away
TTITLE9=Lie To Me
TTITLE10=Gee Baby Ain't I Good To You
TTITLE11=Down Home Blues
EXTD=
EXTT0=
EXTT1=
EXTT2=
EXTT3=
EXTT4=
EXTT5=
EXTT6=
EXTT7=
EXTT8=
EXTT9=
EXTT10=
EXTT11=
PLAYORDER=
